<svg width="467" height="49" viewBox="0 0 467 49" fill="none" xmlns="http://www.w3.org/2000/svg">
<path d="M33.375 42.6875C32.8125 43.375 32.0417 44.0729 31.0625 44.7812C30.0833 45.4896 28.9167 46.1354 27.5625 46.7188C26.2292 47.2812 24.7292 47.7396 23.0625 48.0938C21.3958 48.4479 19.6042 48.625 17.6875 48.625C15.1042 48.625 12.7708 48.1667 10.6875 47.25C8.60417 46.3333 6.82292 45.0104 5.34375 43.2812C3.86458 41.5521 2.71875 39.4375 1.90625 36.9375C1.11458 34.4167 0.71875 31.5625 0.71875 28.375V22.1875C0.71875 19 1.13542 16.1562 1.96875 13.6562C2.82292 11.1354 3.98958 9 5.46875 7.25C6.96875 5.5 8.71875 4.16667 10.7188 3.25C12.7396 2.33333 14.9271 1.875 17.2812 1.875C19.8438 1.875 22.0729 2.19792 23.9688 2.84375C25.8854 3.48958 27.5 4.42708 28.8125 5.65625C30.125 6.86458 31.1458 8.34375 31.875 10.0938C32.625 11.8438 33.1146 13.8125 33.3438 16H24.7812C24.4896 13.6667 23.7812 11.9167 22.6562 10.75C21.5521 9.5625 19.8333 8.96875 17.5 8.96875C16.375 8.96875 15.3333 9.26042 14.375 9.84375C13.4167 10.4062 12.5833 11.2396 11.875 12.3438C11.1667 13.4479 10.6042 14.8229 10.1875 16.4688C9.77083 18.0938 9.5625 19.9792 9.5625 22.125V28.375C9.58333 32.625 10.2917 35.8854 11.6875 38.1562C13.0833 40.4062 15.2188 41.5417 18.0938 41.5625C18.7812 41.5625 19.4583 41.5104 20.125 41.4062C20.7917 41.3021 21.4167 41.1562 22 40.9688C22.5833 40.7812 23.0938 40.5729 23.5312 40.3438C23.9896 40.0938 24.3333 39.8333 24.5625 39.5625L24.5938 31.3125H17.0625V24.75H33.3438L33.375 42.6875ZM43.1562 14.1875H61.5625V40.9375H70.7188V48H43.1562V40.9375H52.7812V21.2812H43.1562V14.1875ZM52.1562 5.53125C52.1562 4.86458 52.2708 4.25 52.5 3.6875C52.75 3.10417 53.0938 2.61458 53.5312 2.21875C53.9688 1.80208 54.4896 1.47917 55.0938 1.25C55.7188 1.02083 56.4062 0.90625 57.1562 0.90625C58.6979 0.90625 59.9167 1.34375 60.8125 2.21875C61.7292 3.07292 62.1875 4.17708 62.1875 5.53125C62.1875 6.88542 61.7292 8 60.8125 8.875C59.9167 9.72917 58.6979 10.1562 57.1562 10.1562C56.4062 10.1562 55.7188 10.0417 55.0938 9.8125C54.4896 9.58333 53.9688 9.27083 53.5312 8.875C53.0938 8.45833 52.75 7.96875 52.5 7.40625C52.2708 6.82292 52.1562 6.19792 52.1562 5.53125ZM95.2188 5.90625V14.1875H107.844V20.5938H95.2188V35.125C95.2188 36.3542 95.3542 37.3854 95.625 38.2188C95.9167 39.0312 96.3229 39.6875 96.8438 40.1875C97.3646 40.6667 97.9896 41.0104 98.7188 41.2188C99.4688 41.4271 100.302 41.5312 101.219 41.5312C101.885 41.5312 102.562 41.5 103.25 41.4375C103.958 41.375 104.625 41.3021 105.25 41.2188C105.896 41.1146 106.49 41.0104 107.031 40.9062C107.594 40.8021 108.073 40.6979 108.469 40.5938L109.312 46.5625C108.708 46.9167 108 47.2292 107.188 47.5C106.375 47.75 105.51 47.9583 104.594 48.125C103.677 48.2917 102.719 48.4167 101.719 48.5C100.74 48.6042 99.7708 48.6562 98.8125 48.6562C96.9583 48.6562 95.2708 48.4167 93.75 47.9375C92.25 47.4375 90.9583 46.6771 89.875 45.6562C88.8125 44.6146 87.9896 43.3021 87.4062 41.7188C86.8229 40.1146 86.5312 38.1979 86.5312 35.9688V20.5938H78.8125V14.1875H86.5312V5.90625H95.2188ZM126.406 18.8438C127.531 17.1979 128.896 15.9062 130.5 14.9688C132.125 14.0312 133.938 13.5625 135.938 13.5625C137.708 13.5625 139.333 13.8333 140.812 14.375C142.292 14.8958 143.562 15.7188 144.625 16.8438C145.688 17.9688 146.51 19.4167 147.094 21.1875C147.698 22.9375 148 25.0521 148 27.5312V48H139.312V27.4688C139.312 26.2604 139.156 25.2188 138.844 24.3438C138.552 23.4688 138.125 22.7604 137.562 22.2188C137 21.6771 136.323 21.2812 135.531 21.0312C134.74 20.7604 133.844 20.625 132.844 20.625C131.385 20.625 130.115 20.8854 129.031 21.4062C127.969 21.9271 127.094 22.6562 126.406 23.5938V48H117.719V0H126.406V18.8438ZM177.719 43.25C176.573 44.9375 175.188 46.2604 173.562 47.2188C171.958 48.1771 170.198 48.6562 168.281 48.6562C166.531 48.6562 164.927 48.3854 163.469 47.8438C162.01 47.3021 160.76 46.4479 159.719 45.2812C158.677 44.0938 157.865 42.5938 157.281 40.7812C156.719 38.9479 156.438 36.75 156.438 34.1875V14.1875H165.125V34.25C165.125 35.625 165.219 36.7812 165.406 37.7188C165.615 38.6562 165.938 39.4167 166.375 40C166.812 40.5625 167.385 40.9688 168.094 41.2188C168.802 41.4688 169.667 41.5938 170.688 41.5938C172.417 41.5938 173.823 41.2708 174.906 40.625C175.99 39.9583 176.812 39.0521 177.375 37.9062V14.1875H186.094V48H178.219L177.719 43.25ZM225.062 31.4375C225.062 33.9583 224.781 36.2708 224.219 38.375C223.677 40.4792 222.854 42.2917 221.75 43.8125C220.646 45.3333 219.271 46.5208 217.625 47.375C215.979 48.2083 214.062 48.625 211.875 48.625C209.896 48.625 208.177 48.2604 206.719 47.5312C205.281 46.7812 204.042 45.7396 203 44.4062L202.594 48H194.781V0H203.469V17.25C204.469 16.0833 205.646 15.1771 207 14.5312C208.375 13.8854 209.979 13.5625 211.812 13.5625C214.021 13.5625 215.948 13.9896 217.594 14.8438C219.26 15.6979 220.646 16.8854 221.75 18.4062C222.854 19.9271 223.677 21.75 224.219 23.875C224.781 25.9792 225.062 28.2812 225.062 30.7812V31.4375ZM216.375 30.7812C216.375 29.4062 216.271 28.1042 216.062 26.875C215.854 25.6458 215.49 24.5729 214.969 23.6562C214.469 22.7188 213.781 21.9792 212.906 21.4375C212.031 20.8958 210.938 20.625 209.625 20.625C208.042 20.625 206.75 20.9583 205.75 21.625C204.771 22.2917 204.01 23.2083 203.469 24.375V37.8438C204.01 39.0104 204.771 39.9271 205.75 40.5938C206.75 41.2604 208.062 41.5938 209.688 41.5938C211 41.5938 212.083 41.3438 212.938 40.8438C213.792 40.3229 214.469 39.6146 214.969 38.7188C215.49 37.8021 215.854 36.7292 216.062 35.5C216.271 34.25 216.375 32.8958 216.375 31.4375V30.7812ZM282.679 48.64C279.564 48.64 276.919 48.192 274.743 47.296C272.609 46.3573 270.988 45.0987 269.879 43.52C268.812 41.9413 268.279 40.192 268.279 38.272C268.279 37.76 268.3 37.376 268.343 37.12C268.385 36.736 268.513 36.4373 268.727 36.224C268.983 35.968 269.303 35.84 269.687 35.84H271.223C271.991 35.84 272.375 36.2667 272.375 37.12C272.289 38.4 272.588 39.6373 273.271 40.832C273.953 41.984 275.084 42.944 276.663 43.712C278.241 44.4373 280.247 44.8 282.679 44.8C286.732 44.8 289.975 44.0533 292.407 42.56C294.839 41.0667 296.332 39.0187 296.887 36.416C297.015 35.904 297.079 35.4133 297.079 34.944C297.079 33.664 296.631 32.5973 295.735 31.744C294.881 30.848 293.665 30.0587 292.087 29.376C290.508 28.6933 288.14 27.7973 284.983 26.688C281.228 25.408 278.519 24.0213 276.855 22.528C275.191 20.992 274.359 19.008 274.359 16.576C274.359 15.4667 274.465 14.464 274.679 13.568C275.404 10.24 277.196 7.57333 280.055 5.568C282.956 3.56266 286.711 2.56 291.319 2.56C294.22 2.56 296.652 3.05066 298.615 4.032C300.62 4.97066 302.113 6.18666 303.095 7.68C304.076 9.17333 304.567 10.7307 304.567 12.352C304.567 12.6933 304.524 13.1627 304.439 13.76C304.268 14.6133 303.82 15.04 303.095 15.04H301.559C301.26 15.04 300.983 14.9547 300.727 14.784C300.471 14.5707 300.364 14.2293 300.407 13.76C300.449 13.504 300.471 13.2693 300.471 13.056C300.471 11.2213 299.703 9.68533 298.167 8.448C296.417 7.08266 294.135 6.4 291.319 6.4C287.991 6.4 285.153 7.06133 282.807 8.384C280.503 9.664 279.073 11.5627 278.519 14.08C278.391 14.72 278.327 15.2747 278.327 15.744C278.327 17.024 278.711 18.112 279.479 19.008C280.289 19.8613 281.441 20.6507 282.935 21.376C284.428 22.0587 286.604 22.8907 289.463 23.872C293.559 25.28 296.524 26.752 298.359 28.288C300.193 29.7813 301.111 31.7653 301.111 34.24C301.111 34.9653 301.004 35.8613 300.791 36.928C299.98 40.768 297.996 43.6907 294.839 45.696C291.724 47.6587 287.671 48.64 282.679 48.64ZM319.835 48.64C316.293 48.64 313.563 47.5947 311.643 45.504C309.723 43.4133 308.763 40.576 308.763 36.992C308.763 36.0107 308.827 34.9867 308.955 33.92C309.168 32.64 309.531 30.9333 310.043 28.8C311.323 24.3627 313.477 20.8 316.507 18.112C319.536 15.424 323.099 14.08 327.195 14.08C330.821 14.08 333.595 15.0827 335.515 17.088C337.435 19.0507 338.395 21.824 338.395 25.408C338.395 26.9867 338.203 28.7147 337.819 30.592L337.627 31.552C337.541 31.9787 337.328 32.32 336.987 32.576C336.645 32.832 336.261 32.96 335.835 32.96H313.051L312.923 33.6C312.795 34.4107 312.731 35.2213 312.731 36.032C312.731 38.592 313.413 40.7253 314.779 42.432C316.144 44.096 318.085 44.928 320.603 44.928C322.949 44.928 324.955 44.4587 326.619 43.52C328.325 42.5813 329.584 41.664 330.395 40.768C330.907 40.256 331.269 39.936 331.483 39.808C331.696 39.68 332.059 39.616 332.571 39.616H333.595C333.936 39.616 334.213 39.7013 334.427 39.872C334.64 40.0427 334.747 40.2773 334.747 40.576C334.747 41.3867 334.043 42.4533 332.635 43.776C331.269 45.056 329.435 46.1867 327.131 47.168C324.869 48.1493 322.437 48.64 319.835 48.64ZM334.171 29.376L334.235 29.12C334.448 27.9253 334.555 26.9013 334.555 26.048C334.555 23.5733 333.851 21.5893 332.443 20.096C331.035 18.56 329.029 17.792 326.427 17.792C323.312 17.792 320.603 18.8587 318.299 20.992C316.037 23.1253 314.565 25.8347 313.883 29.12L313.819 29.376H334.171ZM353.623 48.64C349.783 48.64 346.988 47.552 345.239 45.376C343.532 43.1573 342.679 40.3413 342.679 36.928C342.679 35.8187 342.786 34.56 342.999 33.152C343.127 32.2987 343.383 31.104 343.767 29.568C346.455 19.2427 351.938 14.08 360.215 14.08C362.818 14.08 364.844 14.528 366.295 15.424C367.746 16.32 368.898 17.5573 369.751 19.136L370.391 16.128C370.476 15.7013 370.668 15.36 370.967 15.104C371.266 14.848 371.628 14.72 372.055 14.72H373.143C373.57 14.72 373.89 14.848 374.103 15.104C374.274 15.2747 374.359 15.5093 374.359 15.808C374.359 15.8933 374.338 16 374.295 16.128L367.831 46.592C367.746 47.0187 367.554 47.36 367.255 47.616C366.956 47.872 366.594 48 366.167 48H365.079C364.652 48 364.332 47.872 364.119 47.616C363.948 47.4453 363.863 47.2107 363.863 46.912C363.863 46.8267 363.884 46.72 363.927 46.592L364.567 43.584C362.988 45.2907 361.41 46.5707 359.831 47.424C358.252 48.2347 356.183 48.64 353.623 48.64ZM353.623 44.928C355.927 44.928 357.975 44.3733 359.767 43.264C361.602 42.1547 363.095 40.7467 364.247 39.04C365.399 37.3333 366.21 35.5413 366.679 33.664C366.978 32.4693 367.34 30.8053 367.767 28.672C367.938 27.8613 368.023 26.9227 368.023 25.856C368.023 23.5093 367.404 21.5893 366.167 20.096C364.93 18.56 362.946 17.792 360.215 17.792C356.972 17.792 354.327 18.9013 352.279 21.12C350.274 23.296 348.759 26.112 347.735 29.568C347.436 30.592 347.18 31.7867 346.967 33.152C346.754 34.7307 346.647 36.0747 346.647 37.184C346.647 42.3467 348.972 44.928 353.623 44.928ZM379.373 48C378.946 48 378.626 47.872 378.413 47.616C378.242 47.4453 378.157 47.2107 378.157 46.912C378.157 46.8267 378.178 46.72 378.221 46.592L384.685 16.192C384.77 15.7653 384.962 15.424 385.26 15.168C385.602 14.8693 385.986 14.72 386.413 14.72H387.437C387.863 14.72 388.183 14.848 388.397 15.104C388.567 15.3173 388.653 15.5733 388.653 15.872C388.653 15.9573 388.631 16.064 388.589 16.192L387.949 19.136C388.93 17.6853 390.231 16.5973 391.853 15.872C393.517 15.104 395.437 14.72 397.613 14.72H399.981C400.407 14.72 400.727 14.848 400.941 15.104C401.069 15.2747 401.133 15.488 401.133 15.744C401.133 15.872 401.111 16 401.069 16.128L400.877 17.024C400.834 17.4507 400.642 17.792 400.301 18.048C400.002 18.304 399.639 18.432 399.213 18.432H396.461C393.901 18.432 391.703 19.1787 389.869 20.672C388.077 22.1653 386.903 24.192 386.349 26.752L382.125 46.592C382.039 47.0187 381.826 47.36 381.485 47.616C381.186 47.872 380.823 48 380.397 48H379.373ZM412.577 48.64C408.95 48.64 406.092 47.6587 404.001 45.696C401.91 43.6907 400.865 40.9387 400.865 37.44C400.865 36.1173 400.972 34.944 401.185 33.92C401.697 31.36 402.06 29.6533 402.273 28.8C403.425 24.1067 405.409 20.48 408.225 17.92C411.084 15.36 414.732 14.08 419.169 14.08C423.137 14.08 426.038 15.0187 427.873 16.896C429.75 18.7307 430.689 20.928 430.689 23.488C430.689 23.9573 430.668 24.32 430.625 24.576C430.582 25.0027 430.433 25.344 430.177 25.6C429.964 25.856 429.665 25.984 429.281 25.984H428.065C427.596 25.984 427.254 25.8987 427.041 25.728C426.828 25.5147 426.742 25.152 426.785 24.64C426.87 22.2933 426.252 20.5653 424.929 19.456C423.606 18.3467 421.686 17.792 419.169 17.792C416.054 17.792 413.324 18.7307 410.977 20.608C408.673 22.4853 407.052 25.3227 406.113 29.12C405.9 29.9733 405.58 31.4667 405.153 33.6C404.94 34.7093 404.833 35.904 404.833 37.184C404.833 42.3467 407.414 44.928 412.577 44.928C417.825 44.928 421.558 42.752 423.777 38.4C424.076 37.8453 424.332 37.4827 424.545 37.312C424.758 37.1413 425.078 37.056 425.505 37.056H426.657C427.041 37.056 427.34 37.184 427.553 37.44C427.638 37.568 427.681 37.7387 427.681 37.952C427.681 38.1227 427.66 38.2933 427.617 38.464C427.105 40.1707 426.23 41.792 424.993 43.328C423.756 44.864 422.07 46.144 419.937 47.168C417.846 48.1493 415.393 48.64 412.577 48.64ZM435.435 48C435.008 48 434.688 47.872 434.475 47.616C434.304 47.4453 434.219 47.2107 434.219 46.912C434.219 46.8267 434.24 46.72 434.283 46.592L443.371 3.968C443.456 3.54133 443.648 3.2 443.947 2.944C444.246 2.688 444.608 2.56 445.035 2.56H446.123C446.55 2.56 446.87 2.688 447.083 2.944C447.254 3.11466 447.339 3.34933 447.339 3.648C447.339 3.73333 447.318 3.84 447.275 3.968L444.011 19.136C445.462 17.5147 447.04 16.2773 448.747 15.424C450.496 14.528 452.63 14.08 455.147 14.08C458.816 14.08 461.59 15.04 463.467 16.96C465.387 18.8373 466.347 21.376 466.347 24.576C466.347 25.5573 466.198 26.8373 465.899 28.416L461.995 46.592C461.91 47.0187 461.718 47.36 461.419 47.616C461.12 47.872 460.758 48 460.331 48H459.243C458.816 48 458.496 47.872 458.283 47.616C458.112 47.4453 458.027 47.2107 458.027 46.912C458.027 46.8267 458.048 46.72 458.091 46.592L461.867 28.736C462.208 27.1573 462.379 25.8133 462.379 24.704C462.379 20.096 459.968 17.792 455.147 17.792C452.032 17.792 449.238 18.7947 446.763 20.8C444.288 22.7627 442.688 25.408 441.963 28.736L438.187 46.592C438.102 47.0187 437.91 47.36 437.611 47.616C437.312 47.872 436.95 48 436.523 48H435.435Z" fill="black"/>
</svg>
